<?xml version="1.0" encoding="utf-8"?>
<!-- Generator: Adobe Illustrator 24.1.0, SVG Export Plug-In . SVG Version: 6.00 Build 0)  -->
<svg version="1.1" id="Layer_1" xmlns="http://www.w3.org/2000/svg" xmlns:xlink="http://www.w3.org/1999/xlink" x="0px" y="0px"
	 viewBox="0 0 13 8" style="enable-background:new 0 0 13 8;" xml:space="preserve">
<style type="text/css">
	.st0{fill:#AFAFAF;}
</style>
<g>
	<g>
		<path class="st0" d="M5,6.83H4.21C2.65,6.83,1.38,5.56,1.38,4s1.27-2.83,2.83-2.83H5V0.42H4.21C2.23,0.42,0.62,2.02,0.62,4
			s1.61,3.58,3.58,3.58H5V6.83z"/>
		<path class="st0" d="M8.79,0.42H8v0.75h0.79c1.56,0,2.83,1.27,2.83,2.83s-1.27,2.83-2.83,2.83H8v0.75h0.79
			c1.98,0,3.58-1.61,3.58-3.58S10.77,0.42,8.79,0.42z"/>
	</g>
	<rect x="3.5" y="3.62" class="st0" width="6" height="0.75"/>
</g>
</svg>
