<?xml version="1.0" encoding="UTF-8"?>
<!DOCTYPE svg PUBLIC "-//W3C//DTD SVG 1.1//EN" "http://www.w3.org/Graphics/SVG/1.1/DTD/svg11.dtd">
<!-- Creator: CorelDRAW 2018 (64-Bit) -->
<svg xmlns="http://www.w3.org/2000/svg" xml:space="preserve" width="136px" height="50px" version="1.1" style="shape-rendering:geometricPrecision; text-rendering:geometricPrecision; image-rendering:optimizeQuality; fill-rule:evenodd; clip-rule:evenodd"
viewBox="0 0 136 49.88"
 xmlns:xlink="http://www.w3.org/1999/xlink">
 <defs>
  <style type="text/css">
   <![CDATA[
    .fil0 {fill:#E1E1E1;fill-rule:nonzero}
   ]]>
  </style>
 </defs>
 <g id="Layer_x0020_1">
  <metadata id="CorelCorpID_0Corel-Layer"/>
  <g id="_2850303241024">
   <g>
    <path class="fil0" d="M49.88 3.6l0 6.69 -3.34 -3.35 3.34 -3.34zm-37.54 37.54l8.75 8.74 -7.2 0 -5.15 -5.14 3.6 -3.6zm-5.4 5.4l3.35 3.34 -6.69 0 3.34 -3.34zm10.8 -10.8l14.15 14.14 -7.2 0 -10.55 -10.54 3.6 -3.6zm5.4 -5.4l19.54 19.54 -7.19 0 -15.95 -15.94 3.6 -3.6zm5.4 -5.4l21.34 21.34 0 3.6 -3.6 0 -21.34 -21.34 3.6 -3.6zm5.4 -5.4l15.94 15.94 0 7.2 -19.54 -19.54 3.6 -3.6zm5.4 -5.4l10.54 10.55 0 7.19 -14.14 -14.14 3.6 -3.6zm5.4 -5.4l5.14 5.15 0 7.2 -8.74 -8.75 3.6 -3.6z"/>
    <path class="fil0" d="M3.09 0l-3.09 3.09 0 -3.09 3.09 0zm7.2 0l3.6 0 -13.89 13.89 0 -3.6 10.29 -10.29zm10.8 0l3.6 0 -24.69 24.69 0 -3.6 21.09 -21.09zm10.79 0l3.6 0 -35.48 35.48 0 -3.6 31.88 -31.88zm10.8 0l3.6 0 -46.28 46.28 0 -3.6 42.68 -42.68z"/>
   </g>
   <path class="fil0" d="M65.52 24.45l-8 0 0 -12.47 1.03 0 0 11.47 6.97 0 0 1zm2.07 -10.45c-0.25,0 -0.45,-0.08 -0.62,-0.24 -0.17,-0.16 -0.26,-0.37 -0.26,-0.62 0,-0.24 0.09,-0.45 0.26,-0.61 0.17,-0.17 0.37,-0.25 0.62,-0.25 0.24,0 0.44,0.08 0.61,0.25 0.17,0.16 0.25,0.37 0.25,0.61 0,0.25 -0.08,0.46 -0.25,0.62 -0.17,0.16 -0.37,0.24 -0.61,0.24zm0.47 1.42l0 9.03 -1.01 0 0 -9.03 1.01 0zm3.83 9.03l-1.01 0 0 -9.03 0.98 0 0 1.59c0.55,-1.22 1.6,-1.83 3.14,-1.83 1,0 1.85,0.34 2.54,1 0.69,0.65 1.03,1.59 1.03,2.82l0 5.45 -1.01 0 0 -5.27c0,-0.94 -0.24,-1.69 -0.72,-2.23 -0.47,-0.55 -1.13,-0.82 -1.96,-0.82 -0.8,0 -1.5,0.27 -2.09,0.83 -0.6,0.54 -0.9,1.35 -0.9,2.42l0 5.07zm17.41 -4.91c0,0.12 -0.01,0.38 -0.05,0.79l-7.59 0c0.08,1.02 0.44,1.84 1.08,2.45 0.64,0.62 1.5,0.92 2.58,0.92 0.59,0 1.18,-0.09 1.79,-0.29 0.61,-0.2 1.11,-0.46 1.52,-0.79l0.47 0.78c-0.46,0.36 -1.03,0.66 -1.71,0.89 -0.68,0.24 -1.38,0.36 -2.09,0.36 -1.55,0 -2.72,-0.47 -3.5,-1.39 -0.79,-0.93 -1.19,-2.05 -1.19,-3.35 0,-1.36 0.41,-2.49 1.24,-3.38 0.82,-0.88 1.9,-1.33 3.25,-1.33 1.22,0 2.22,0.39 3,1.18 0.8,0.78 1.2,1.83 1.2,3.16zm-4.2 -3.41c-0.94,0 -1.73,0.3 -2.35,0.89 -0.63,0.6 -0.99,1.39 -1.09,2.38l6.6 0c-0.02,-0.99 -0.31,-1.78 -0.89,-2.38 -0.58,-0.59 -1.33,-0.89 -2.27,-0.89z"/>
   <path class="fil0" d="M61.18 39.16c-0.98,0 -1.88,-0.21 -2.71,-0.61 -0.84,-0.41 -1.51,-0.98 -2.01,-1.72l1.43 -1.74c0.83,1.16 1.94,1.74 3.31,1.74 0.52,0 0.95,-0.13 1.28,-0.38 0.34,-0.24 0.51,-0.56 0.51,-0.96 0,-0.52 -0.38,-0.95 -1.13,-1.3 -0.09,-0.04 -0.5,-0.21 -1.23,-0.49 -0.58,-0.22 -1.07,-0.45 -1.47,-0.67 -1.32,-0.76 -1.98,-1.79 -1.98,-3.11 0,-1.05 0.4,-1.91 1.18,-2.6 0.8,-0.7 1.83,-1.05 3.08,-1.05 1.62,0 2.99,0.57 4.1,1.69l-1.33 1.82c-0.34,-0.36 -0.76,-0.64 -1.26,-0.85 -0.5,-0.21 -1,-0.31 -1.48,-0.31 -0.49,0 -0.89,0.11 -1.17,0.33 -0.29,0.22 -0.43,0.51 -0.43,0.87 0,0.48 0.33,0.89 1.01,1.23l1.23 0.54c0.7,0.29 1.21,0.51 1.52,0.66 1.42,0.69 2.13,1.72 2.13,3.11 0,1.11 -0.42,2.02 -1.27,2.73 -0.84,0.71 -1.94,1.07 -3.31,1.07zm9.07 -0.21l-2.5 0 0 -12.48 2.5 0 0 4.99 5.24 0 0 -4.99 2.49 0 0 12.48 -2.49 0 0 -5.08 -5.24 0 0 5.08zm20.74 0l-2.64 0 -0.93 -2.7 -4.35 0 -0.97 2.7 -2.61 0 4.76 -12.48 2.04 0 4.7 12.48zm-4.28 -4.93l-1.45 -4.15 -1.48 4.15 2.93 0zm10.57 4.93l-4.78 0 0 -12.48 4.88 0c1.88,0 3.35,0.57 4.41,1.69 1.07,1.13 1.61,2.65 1.61,4.58 0,1.92 -0.55,3.44 -1.64,4.54 -1.08,1.12 -2.57,1.67 -4.48,1.67zm-2.28 -10.08l0 7.69 2.4 0c1.07,0 1.9,-0.37 2.5,-1.1 0.6,-0.73 0.9,-1.66 0.9,-2.77 0,-1.08 -0.3,-1.99 -0.9,-2.72 -0.6,-0.73 -1.43,-1.1 -2.5,-1.1l-2.4 0zm16.26 10.29c-1.85,0 -3.4,-0.62 -4.62,-1.85 -1.24,-1.23 -1.86,-2.75 -1.86,-4.55 0,-1.82 0.62,-3.35 1.87,-4.61 1.26,-1.26 2.81,-1.89 4.63,-1.89 1.82,0 3.36,0.63 4.61,1.89 1.26,1.26 1.89,2.78 1.89,4.57 0,1.79 -0.63,3.31 -1.89,4.56 -1.25,1.25 -2.79,1.88 -4.63,1.88zm3.92 -6.44c0,-1.15 -0.38,-2.1 -1.13,-2.85 -0.77,-0.77 -1.69,-1.15 -2.77,-1.15 -1.08,0 -2,0.38 -2.77,1.15 -0.75,0.75 -1.13,1.7 -1.13,2.85 0,1.14 0.37,2.08 1.11,2.84 0.76,0.75 1.69,1.13 2.79,1.13 1.1,0 2.03,-0.38 2.79,-1.13 0.75,-0.76 1.12,-1.7 1.11,-2.84zm9.29 6.23l-2.11 0 -4.14 -12.48 2.74 0 2.51 8.4 2.84 -8.4 1.59 0 2.88 8.4 2.48 -8.4 2.74 0 -4.12 12.48 -2.11 0 -2.65 -8.17 -2.65 8.17z"/>
  </g>
 </g>
</svg>
